<svg xmlns="http://www.w3.org/2000/svg" viewBox="0 0 1200 700" font-family="-apple-system, Segoe UI, Inter, sans-serif">
  <rect width="1200" height="700" fill="#F1F4F8"/>
  <g transform="translate(80,60)">
    <text fill="#5A6478" font-size="13" font-weight="700" letter-spacing="2">CAPÍTULO 05 · PERSISTENCIA</text>
    <text y="50" fill="#0F1A2B" font-size="32" font-weight="700">Dos sitios. Una verdad.</text>
    <text y="82" fill="#5A6478" font-size="16">El config compartido vive en el NAS. Lo local es solo identidad y ruta.</text>
  </g>
  <g transform="translate(80,200)">
    <rect width="500" height="440" rx="16" fill="#FFFFFF" stroke="#E4E9F2"/>
    <g transform="translate(28,28)">
      <rect width="48" height="48" rx="10" fill="#0F1A2B"/>
      <text x="9" y="32" fill="#FFFFFF" font-size="22">🖥</text>
    </g>
    <text x="92" y="46" fill="#0F1A2B" font-size="20" font-weight="700">Local · cada PC del taller</text>
    <text x="92" y="68" fill="#5A6478" font-size="13" font-family="ui-monospace, Consolas, monospace">%APPDATA%\packprice\settings.json</text>
    <line x1="28" x2="472" y1="100" y2="100" stroke="#E4E9F2"/>
    <g transform="translate(28,120)" font-family="ui-monospace, Consolas, monospace" font-size="13">
      <text fill="#5A6478">{</text>
      <text y="22" fill="#5A6478" x="14">"usuario":</text>
      <text y="22" fill="#3D7BD9" x="116">"Alberto"</text>
      <text y="22" fill="#5A6478" x="184">,</text>
      <text y="44" fill="#5A6478" x="14">"config_path":</text>
      <text y="44" fill="#3D7BD9" x="142">"\\\\172.26.0.154\\Paep\\Packs\\config.js"</text>
      <text y="66" fill="#5A6478" x="14">,</text>
      <text y="88" fill="#5A6478" x="14">"recordar_ultimo_pack":</text>
      <text y="88" fill="#1FA86A" x="222">true</text>
      <text y="110" fill="#5A6478">}</text>
    </g>
    <g transform="translate(28,260)">
      <rect width="444" height="160" rx="10" fill="#F1F4F8"/>
      <text x="20" y="32" fill="#0F1A2B" font-size="14" font-weight="700">Qué pasa al borrar esto</text>
      <text x="20" y="58" fill="#5A6478" font-size="13">El próximo arranque entra en la pantalla de bienvenida.</text>
      <text x="20" y="80" fill="#5A6478" font-size="13">Pide nombre y ruta del config. No pierde nada importante.</text>
      <text x="20" y="118" fill="#0F1A2B" font-size="14" font-weight="700">Identificación, no autenticación</text>
      <text x="20" y="142" fill="#5A6478" font-size="13">El nombre se guarda como "modificado_por" en el config.</text>
    </g>
  </g>
  <g transform="translate(620,200)">
    <rect width="500" height="440" rx="16" fill="#0F1A2B"/>
    <g transform="translate(28,28)">
      <rect width="48" height="48" rx="10" fill="#3D7BD9"/>
      <text x="9" y="32" fill="#FFFFFF" font-size="22">📁</text>
    </g>
    <text x="92" y="46" fill="#FFFFFF" font-size="20" font-weight="700">NAS · 172.26.0.154</text>
    <text x="92" y="68" fill="#A6B0C2" font-size="13" font-family="ui-monospace, Consolas, monospace">\\Paep\Packs\config.js</text>
    <line x1="28" x2="472" y1="100" y2="100" stroke="#1A2740"/>
    <g transform="translate(28,120)" font-family="ui-monospace, Consolas, monospace" font-size="12">
      <text fill="#A6B0C2">window.PACKPRICE_CONFIG = {</text>
      <text y="22" fill="#A6B0C2" x="14">version:</text>
      <text y="22" fill="#3D7BD9" x="80">'2.0.0-beta'</text>
      <text y="22" fill="#A6B0C2" x="180">,</text>
      <text y="44" fill="#A6B0C2" x="14">modificado_por:</text>
      <text y="44" fill="#3D7BD9" x="138">'Alberto'</text>
      <text y="44" fill="#A6B0C2" x="212">,</text>
      <text y="66" fill="#A6B0C2" x="14">parametros:</text>
      <text y="66" fill="#A6B0C2" x="106">{ ... },</text>
      <text y="88" fill="#A6B0C2" x="14">modelos_roly:</text>
      <text y="88" fill="#A6B0C2" x="124">{ ... },</text>
      <text y="110" fill="#A6B0C2" x="14">tramos:</text>
      <text y="110" fill="#A6B0C2" x="74">[ T1, T2, T3, T4 ],</text>
      <text y="132" fill="#A6B0C2" x="14">packs:</text>
      <text y="132" fill="#A6B0C2" x="60">{ pena_completa, ... }</text>
      <text y="154" fill="#A6B0C2">};</text>
    </g>
    <g transform="translate(28,304)">
      <rect width="444" height="116" rx="10" fill="#1A2740"/>
      <text x="20" y="30" fill="#FFFFFF" font-size="13" font-weight="700">backups/ · uno por escritura</text>
      <text x="20" y="56" fill="#A6B0C2" font-size="12" font-family="ui-monospace, Consolas, monospace">config-2026-04-28T15-30-12.js</text>
      <text x="20" y="78" fill="#A6B0C2" font-size="12" font-family="ui-monospace, Consolas, monospace">config-2026-04-29T09-15-44.js</text>
      <text x="20" y="100" fill="#1FA86A" font-size="12" font-weight="700">vm.runInNewContext · timeout 1s</text>
    </g>
  </g>
</svg>
