<svg xmlns="http://www.w3.org/2000/svg" viewBox="0 0 1280 800" font-family="-apple-system, Segoe UI, Inter, sans-serif">
  <rect width="1280" height="800" fill="#F1F4F8"/>
  <g transform="translate(40,40)">
    <rect width="1200" height="720" rx="20" fill="#FFFFFF"/>
    <g transform="translate(0,0)">
      <rect width="1200" height="68" rx="20" fill="#FFFFFF"/>
      <rect width="1200" height="68" fill="#FFFFFF"/>
      <line x1="0" x2="1200" y1="68" y2="68" stroke="#E4E9F2"/>
      <rect x="28" y="20" width="32" height="32" rx="8" fill="#0F1A2B"/>
      <text x="38" y="42" fill="#FFFFFF" font-size="16" font-weight="700">P</text>
      <text x="72" y="40" fill="#0F1A2B" font-size="14" font-weight="700">PackPrice</text>
      <text x="148" y="40" fill="#5A6478" font-size="13">· Calculadora de packs</text>
      <g transform="translate(720,18)">
        <rect width="120" height="32" rx="16" fill="#F1F4F8"/>
        <text x="14" y="20" fill="#5A6478" font-size="12" font-weight="500">👤 Alberto</text>
      </g>
      <g transform="translate(848,18)">
        <rect width="160" height="32" rx="16" fill="#F1F4F8"/>
        <text x="14" y="20" fill="#5A6478" font-size="12" font-weight="500">⏱ 28/4 · v2.0.0</text>
      </g>
      <g transform="translate(1016,18)">
        <text x="0" y="22" fill="#5A6478" font-size="13">↻</text>
        <text x="30" y="22" fill="#5A6478" font-size="13">⚙</text>
      </g>
      <g transform="translate(1080,12)">
        <rect width="100" height="40" rx="12" fill="#FFFFFF" stroke="#CDD5E2"/>
        <text x="14" y="26" fill="#0F1A2B" font-size="13" font-weight="600">🔒 Admin</text>
      </g>
    </g>
    <g transform="translate(48,108)">
      <rect width="120" height="26" rx="13" fill="#F1F4F8"/>
      <text x="14" y="18" fill="#5A6478" font-size="11" font-weight="700" letter-spacing="1">PASO 1 DE 3</text>
      <text y="80" fill="#0F1A2B" font-size="32" font-weight="700">¿Qué tipo de pack vas a calcular?</text>
      <text y="112" fill="#5A6478" font-size="15">Elige una de las modalidades. Podrás cambiarla más tarde sin perder los datos.</text>
    </g>
    <g transform="translate(48,260)">
      <g transform="translate(0,0)">
        <rect width="368" height="200" rx="16" fill="#0F1A2B"/>
        <rect x="20" y="20" width="40" height="40" rx="8" fill="#3D7BD9"/>
        <text x="30" y="46" fill="#FFFFFF" font-size="18">📦</text>
        <text x="20" y="100" fill="#FFFFFF" font-size="18" font-weight="700">Pack peña completa</text>
        <text x="20" y="124" fill="#A6B0C2" font-size="13">Camiseta + sudadera por persona.</text>
        <rect x="20" y="148" width="120" height="26" rx="13" fill="#1A2740"/>
        <text x="34" y="166" fill="#3D7BD9" font-size="12" font-weight="600">Desde 25,95 €</text>
        <text x="338" y="40" fill="#FFFFFF" font-size="18">→</text>
      </g>
      <g transform="translate(384,0)">
        <rect width="368" height="200" rx="16" fill="#FFFFFF" stroke="#E4E9F2"/>
        <rect x="20" y="20" width="40" height="40" rx="8" fill="#E4EEFC"/>
        <text x="30" y="46" fill="#1F4FA3" font-size="18">👕</text>
        <text x="20" y="100" fill="#0F1A2B" font-size="18" font-weight="700">Solo camisetas</text>
        <text x="20" y="124" fill="#5A6478" font-size="13">BEAGLE, 1 o 2 caras estampadas.</text>
        <rect x="20" y="148" width="110" height="26" rx="13" fill="#E4EEFC"/>
        <text x="34" y="166" fill="#1F4FA3" font-size="12" font-weight="600">Desde 6,99 €</text>
        <text x="338" y="40" fill="#5A6478" font-size="18">→</text>
      </g>
      <g transform="translate(768,0)">
        <rect width="368" height="200" rx="16" fill="#FFFFFF" stroke="#E4E9F2"/>
        <rect x="20" y="20" width="40" height="40" rx="8" fill="#E4EEFC"/>
        <text x="30" y="46" fill="#1F4FA3" font-size="18">🧥</text>
        <text x="20" y="100" fill="#0F1A2B" font-size="18" font-weight="700">Solo sudaderas s/cap.</text>
        <text x="20" y="124" fill="#5A6478" font-size="13">CLASICA, todas las tallas.</text>
        <rect x="20" y="148" width="110" height="26" rx="13" fill="#E4EEFC"/>
        <text x="34" y="166" fill="#1F4FA3" font-size="12" font-weight="600">Desde 10,45 €</text>
        <text x="338" y="40" fill="#5A6478" font-size="18">→</text>
      </g>
      <g transform="translate(0,220)">
        <rect width="368" height="200" rx="16" fill="#FFFFFF" stroke="#E4E9F2"/>
        <rect x="20" y="20" width="40" height="40" rx="8" fill="#E4EEFC"/>
        <text x="30" y="46" fill="#1F4FA3" font-size="18">🪖</text>
        <text x="20" y="100" fill="#0F1A2B" font-size="18" font-weight="700">Solo sudaderas c/cap.</text>
        <text x="20" y="124" fill="#5A6478" font-size="13">URBAN, capucha y cordón.</text>
        <rect x="20" y="148" width="110" height="26" rx="13" fill="#E4EEFC"/>
        <text x="34" y="166" fill="#1F4FA3" font-size="12" font-weight="600">Desde 11,95 €</text>
        <text x="338" y="40" fill="#5A6478" font-size="18">→</text>
      </g>
      <g transform="translate(384,220)">
        <rect width="368" height="200" rx="16" fill="#FFFFFF" stroke="#E4E9F2"/>
        <rect x="20" y="20" width="40" height="40" rx="8" fill="#FBEFD9"/>
        <text x="30" y="46" fill="#D98A1F" font-size="18">🔀</text>
        <text x="20" y="100" fill="#0F1A2B" font-size="18" font-weight="700">Mixto sudaderas</text>
        <text x="20" y="124" fill="#5A6478" font-size="13">URBAN + CLASICA, tramo total.</text>
        <rect x="20" y="148" width="120" height="26" rx="13" fill="#FBEFD9"/>
        <text x="34" y="166" fill="#D98A1F" font-size="12" font-weight="600">Personalizable</text>
        <text x="338" y="40" fill="#5A6478" font-size="18">→</text>
      </g>
      <g transform="translate(768,220)" opacity="0.55">
        <rect width="368" height="200" rx="16" fill="#FFFFFF" stroke="#E4E9F2" stroke-dasharray="4 4"/>
        <rect x="20" y="20" width="40" height="40" rx="8" fill="#F1F4F8"/>
        <text x="30" y="46" fill="#5A6478" font-size="18">⚙</text>
        <text x="20" y="100" fill="#0F1A2B" font-size="18" font-weight="700">Pack personalizado</text>
        <text x="20" y="124" fill="#5A6478" font-size="13">Combinaciones libres por venir.</text>
        <rect x="20" y="148" width="110" height="26" rx="13" fill="#F1F4F8"/>
        <text x="34" y="166" fill="#5A6478" font-size="12" font-weight="600">En desarrollo</text>
      </g>
    </g>
  </g>
</svg>
