<svg xmlns="http://www.w3.org/2000/svg" viewBox="0 0 1200 600" font-family="-apple-system, Segoe UI, Inter, sans-serif">
  <defs>
    <linearGradient id="bg" x1="0" y1="0" x2="1" y2="1">
      <stop offset="0" stop-color="#0F1A2B"/>
      <stop offset="1" stop-color="#1A2740"/>
    </linearGradient>
    <radialGradient id="glow" cx="0.85" cy="0.15" r="0.6">
      <stop offset="0" stop-color="#3D7BD9" stop-opacity="0.35"/>
      <stop offset="1" stop-color="#3D7BD9" stop-opacity="0"/>
    </radialGradient>
  </defs>
  <rect width="1200" height="600" fill="url(#bg)"/>
  <rect width="1200" height="600" fill="url(#glow)"/>
  <g transform="translate(80,160)">
    <rect x="0" y="0" width="56" height="56" rx="14" fill="#3D7BD9"/>
    <text x="14" y="38" fill="#FFFFFF" font-size="28" font-weight="700">P</text>
    <text x="80" y="36" fill="#FFFFFF" font-size="22" font-weight="600" letter-spacing="0.5">PackPrice</text>
    <text x="0" y="120" fill="#FFFFFF" font-size="64" font-weight="700" letter-spacing="-1">Devlog · de Excel a una</text>
    <text x="0" y="190" fill="#FFFFFF" font-size="64" font-weight="700" letter-spacing="-1">app de escritorio.</text>
    <text x="0" y="245" fill="#A6B0C2" font-size="22" font-weight="400">La crónica completa de cómo se diseñó y se construyó</text>
    <text x="0" y="278" fill="#A6B0C2" font-size="22" font-weight="400">una calculadora interna para un taller DTF.</text>
    <g transform="translate(0,330)">
      <rect width="180" height="40" rx="20" fill="#3D7BD9"/>
      <text x="22" y="26" fill="#FFFFFF" font-size="14" font-weight="600">10 capítulos</text>
      <rect x="200" width="160" height="40" rx="20" fill="#1A2740" stroke="#5A6478" stroke-width="1"/>
      <text x="222" y="26" fill="#A6B0C2" font-size="14" font-weight="500">Electron · vanilla JS</text>
      <rect x="380" width="120" height="40" rx="20" fill="#1A2740" stroke="#5A6478" stroke-width="1"/>
      <text x="402" y="26" fill="#A6B0C2" font-size="14" font-weight="500">2026 · Beta</text>
    </g>
  </g>
  <g transform="translate(820,80)" opacity="0.95">
    <rect x="0" y="0" width="280" height="200" rx="16" fill="#FFFFFF"/>
    <rect x="20" y="20" width="60" height="22" rx="11" fill="#E4EEFC"/>
    <text x="32" y="36" fill="#1F4FA3" font-size="11" font-weight="600">Tramo T1</text>
    <text x="20" y="92" fill="#0F1A2B" font-size="40" font-weight="700" font-family="ui-monospace, Consolas">311,40 €</text>
    <text x="20" y="118" fill="#5A6478" font-size="13">12 packs · 25,95 € por pack</text>
    <line x1="20" x2="260" y1="138" y2="138" stroke="#E4E9F2"/>
    <text x="20" y="160" fill="#5A6478" font-size="12">Camisetas</text>
    <text x="220" y="160" fill="#0F1A2B" font-size="12" font-weight="600" text-anchor="end">119,40</text>
    <text x="20" y="180" fill="#5A6478" font-size="12">Sudaderas</text>
    <text x="220" y="180" fill="#0F1A2B" font-size="12" font-weight="600" text-anchor="end">192,00</text>
  </g>
  <g transform="translate(840,310)" opacity="0.9">
    <rect x="0" y="0" width="260" height="170" rx="16" fill="#FFFFFF" stroke="#E4E9F2"/>
    <text x="20" y="36" fill="#0F1A2B" font-size="14" font-weight="600">Volumen y siguiente tramo</text>
    <g transform="translate(20,60)">
      <rect width="220" height="10" rx="5" fill="#E4E9F2"/>
      <rect width="55" height="10" rx="5" fill="#3D7BD9"/>
      <rect x="55" width="1" height="10" fill="#FFFFFF"/>
      <rect x="110" width="1" height="10" fill="#FFFFFF"/>
      <rect x="165" width="1" height="10" fill="#FFFFFF"/>
    </g>
    <g transform="translate(20,90)" font-size="10" fill="#5A6478">
      <text>10</text>
      <text x="55">25</text>
      <text x="110">50</text>
      <text x="165">100+</text>
    </g>
    <text x="20" y="135" fill="#1FA86A" font-size="12" font-weight="600">+13 packs y baja a 24,95 €</text>
  </g>
</svg>
