<svg xmlns="http://www.w3.org/2000/svg" viewBox="0 0 1200 720" font-family="-apple-system, Segoe UI, Inter, sans-serif">
  <rect width="1200" height="720" fill="#F1F4F8"/>
  <g transform="translate(80,60)">
    <text fill="#0F1A2B" font-size="28" font-weight="700">Nueve componentes reutilizables.</text>
    <text y="32" fill="#5A6478" font-size="15">Toda la app se compone con estas piezas. Sin libraries, sin frameworks.</text>
  </g>
  <g transform="translate(80,160)">
    <rect width="1040" height="200" rx="16" fill="#FFFFFF" stroke="#E4E9F2"/>
    <text x="32" y="40" fill="#5A6478" font-size="11" font-weight="700" letter-spacing="1.5">BOTONES</text>
    <g transform="translate(32,60)">
      <rect width="160" height="44" rx="12" fill="#3D7BD9"/>
      <text x="32" y="28" fill="#FFFFFF" font-size="14" font-weight="600">Calcular precio</text>
    </g>
    <g transform="translate(212,60)">
      <rect width="160" height="44" rx="12" fill="#FFFFFF" stroke="#CDD5E2"/>
      <text x="36" y="28" fill="#0F1A2B" font-size="14" font-weight="600">Cancelar</text>
    </g>
    <g transform="translate(392,60)">
      <rect width="160" height="44" rx="12" fill="#F1F4F8"/>
      <text x="46" y="28" fill="#5A6478" font-size="14" font-weight="500">Recargar config</text>
    </g>
    <g transform="translate(572,60)">
      <rect width="160" height="44" rx="12" fill="#FFFFFF" stroke="#CDD5E2"/>
      <text x="34" y="28" fill="#0F1A2B" font-size="14" font-weight="600">🔒 Modo admin</text>
    </g>
    <text x="32" y="138" fill="#5A6478" font-size="11" font-weight="700" letter-spacing="1.5">BADGES</text>
    <g transform="translate(32,150)">
      <rect width="100" height="26" rx="13" fill="#E4EEFC"/>
      <text x="14" y="18" fill="#1F4FA3" font-size="12" font-weight="600">Tramo T1</text>
    </g>
    <g transform="translate(146,150)">
      <rect width="120" height="26" rx="13" fill="#E1F5EB"/>
      <text x="14" y="18" fill="#1FA86A" font-size="12" font-weight="600">NAS conectado</text>
    </g>
    <g transform="translate(280,150)">
      <rect width="130" height="26" rx="13" fill="#FBEFD9"/>
      <text x="14" y="18" fill="#D98A1F" font-size="12" font-weight="600">Recargo 4XL +3 €</text>
    </g>
    <g transform="translate(424,150)">
      <rect width="100" height="26" rx="13" fill="#FBE6E6"/>
      <text x="14" y="18" fill="#D24D4D" font-size="12" font-weight="600">Conflicto</text>
    </g>
  </g>
  <g transform="translate(80,380)">
    <rect width="500" height="280" rx="16" fill="#FFFFFF" stroke="#E4E9F2"/>
    <text x="32" y="40" fill="#5A6478" font-size="11" font-weight="700" letter-spacing="1.5">PACKCARD · ESTADO POR DEFECTO</text>
    <g transform="translate(32,56)">
      <rect width="436" height="200" rx="16" fill="#F1F4F8" stroke="#E4E9F2"/>
      <rect x="20" y="20" width="40" height="40" rx="8" fill="#E4EEFC"/>
      <text x="20" y="100" fill="#0F1A2B" font-size="18" font-weight="700">Pack peña completa</text>
      <text x="20" y="124" fill="#5A6478" font-size="13">Camiseta + sudadera por persona.</text>
      <rect x="20" y="148" width="120" height="26" rx="13" fill="#E4EEFC"/>
      <text x="34" y="166" fill="#1F4FA3" font-size="12" font-weight="600">Desde 25,95 €</text>
      <text x="408" y="38" fill="#5A6478" font-size="22">→</text>
    </g>
  </g>
  <g transform="translate(620,380)">
    <rect width="500" height="280" rx="16" fill="#FFFFFF" stroke="#E4E9F2"/>
    <text x="32" y="40" fill="#5A6478" font-size="11" font-weight="700" letter-spacing="1.5">PACKCARD · ESTADO SELECCIONADO</text>
    <g transform="translate(32,56)">
      <rect width="436" height="200" rx="16" fill="#0F1A2B"/>
      <rect x="20" y="20" width="40" height="40" rx="8" fill="#3D7BD9"/>
      <text x="20" y="100" fill="#FFFFFF" font-size="18" font-weight="700">Pack peña completa</text>
      <text x="20" y="124" fill="#A6B0C2" font-size="13">Camiseta + sudadera por persona.</text>
      <rect x="20" y="148" width="120" height="26" rx="13" fill="#1A2740"/>
      <text x="34" y="166" fill="#3D7BD9" font-size="12" font-weight="600">Desde 25,95 €</text>
      <text x="408" y="38" fill="#FFFFFF" font-size="22">→</text>
    </g>
  </g>
</svg>
