<svg xmlns="http://www.w3.org/2000/svg" viewBox="0 0 1280 800" font-family="-apple-system, Segoe UI, Inter, sans-serif">
  <rect width="1280" height="800" fill="#0F1A2BB3"/>
  <rect width="1280" height="800" fill="#F1F4F8" opacity="0.4"/>
  <g transform="translate(180,80)">
    <rect width="920" height="640" rx="20" fill="#FFFFFF"/>
    <g transform="translate(40,28)">
      <rect width="40" height="40" rx="10" fill="#0F1A2B"/>
      <text x="12" y="26" fill="#FFFFFF" font-size="16">🔒</text>
      <text x="56" y="20" fill="#0F1A2B" font-size="18" font-weight="700">Modo administrador</text>
      <text x="56" y="40" fill="#5A6478" font-size="13">Editor de parámetros del config compartido</text>
      <text x="836" y="32" fill="#5A6478" font-size="22">×</text>
    </g>
    <line x1="0" x2="920" y1="100" y2="100" stroke="#E4E9F2"/>
    <g transform="translate(40,116)">
      <rect width="840" height="48" rx="12" fill="#FBEFD9"/>
      <text x="20" y="20" fill="#D98A1F" font-size="13" font-weight="700">⚠ Los demás usuarios verán los cambios al pulsar Recargar config.</text>
      <text x="20" y="40" fill="#D98A1F" font-size="12">Se hace backup automático antes de cada escritura.</text>
    </g>
    <g transform="translate(40,184)">
      <rect width="200" height="380" rx="12" fill="#F1F4F8"/>
      <g transform="translate(12,12)">
        <rect width="176" height="40" rx="10" fill="#FFFFFF"/>
        <text x="16" y="26" fill="#0F1A2B" font-size="13" font-weight="700">Parámetros</text>
      </g>
      <g transform="translate(12,60)">
        <rect width="176" height="40" rx="10" fill="#F1F4F8"/>
        <text x="16" y="26" fill="#5A6478" font-size="13">Modelos Roly</text>
      </g>
      <g transform="translate(12,108)">
        <rect width="176" height="40" rx="10" fill="#F1F4F8"/>
        <text x="16" y="26" fill="#5A6478" font-size="13">Tramos por volumen</text>
      </g>
      <g transform="translate(12,156)">
        <rect width="176" height="40" rx="10" fill="#F1F4F8"/>
        <text x="16" y="26" fill="#5A6478" font-size="13">Packs (PVP)</text>
      </g>
      <g transform="translate(12,204)">
        <rect width="176" height="40" rx="10" fill="#F1F4F8"/>
        <text x="16" y="26" fill="#5A6478" font-size="13">Clave admin</text>
      </g>
    </g>
    <g transform="translate(260,184)">
      <text fill="#0F1A2B" font-size="16" font-weight="700">Parámetros del modelo</text>
      <text y="20" fill="#5A6478" font-size="13">Coste interno y recargos. Toca con cuidado.</text>
      <g transform="translate(0,48)">
        <text fill="#5A6478" font-size="11" font-weight="700" letter-spacing="1.2">MO €/HORA</text>
        <rect y="14" width="290" height="40" rx="10" fill="#FFFFFF" stroke="#CDD5E2"/>
        <text x="14" y="40" fill="#0F1A2B" font-size="14" font-family="ui-monospace, Consolas, monospace">15,00</text>
      </g>
      <g transform="translate(310,48)">
        <text fill="#5A6478" font-size="11" font-weight="700" letter-spacing="1.2">IVA</text>
        <rect y="14" width="290" height="40" rx="10" fill="#FFFFFF" stroke="#CDD5E2"/>
        <text x="14" y="40" fill="#0F1A2B" font-size="14" font-family="ui-monospace, Consolas, monospace">21,00 %</text>
      </g>
      <g transform="translate(0,124)">
        <text fill="#5A6478" font-size="11" font-weight="700" letter-spacing="1.2">MERMA</text>
        <rect y="14" width="290" height="40" rx="10" fill="#FFFFFF" stroke="#CDD5E2"/>
        <text x="14" y="40" fill="#0F1A2B" font-size="14" font-family="ui-monospace, Consolas, monospace">10,00 %</text>
      </g>
      <g transform="translate(310,124)">
        <text fill="#5A6478" font-size="11" font-weight="700" letter-spacing="1.2">RECARGO 4XL</text>
        <rect y="14" width="290" height="40" rx="10" fill="#FFFFFF" stroke="#CDD5E2"/>
        <text x="14" y="40" fill="#0F1A2B" font-size="14" font-family="ui-monospace, Consolas, monospace">3,00 €</text>
      </g>
      <g transform="translate(0,200)">
        <text fill="#5A6478" font-size="11" font-weight="700" letter-spacing="1.2">RECARGO 5XL+</text>
        <rect y="14" width="290" height="40" rx="10" fill="#FFFFFF" stroke="#CDD5E2"/>
        <text x="14" y="40" fill="#0F1A2B" font-size="14" font-family="ui-monospace, Consolas, monospace">5,00 €</text>
      </g>
      <g transform="translate(310,200)">
        <text fill="#5A6478" font-size="11" font-weight="700" letter-spacing="1.2">BUFFER 3XL+</text>
        <rect y="14" width="290" height="40" rx="10" fill="#FFFFFF" stroke="#CDD5E2"/>
        <text x="14" y="40" fill="#0F1A2B" font-size="14" font-family="ui-monospace, Consolas, monospace">0,40 €/pack</text>
      </g>
    </g>
    <line x1="0" x2="920" y1="580" y2="580" stroke="#E4E9F2"/>
    <g transform="translate(40,596)">
      <text fill="#5A6478" font-size="12">Última escritura 28/4 10:32 por Alberto · backup #147</text>
    </g>
    <g transform="translate(660,592)">
      <rect width="100" height="36" rx="10" fill="#F1F4F8"/>
      <text x="22" y="24" fill="#5A6478" font-size="13" font-weight="600">Cancelar</text>
      <g transform="translate(112,0)">
        <rect width="160" height="36" rx="10" fill="#3D7BD9"/>
        <text x="22" y="24" fill="#FFFFFF" font-size="13" font-weight="700">Guardar en NAS</text>
      </g>
    </g>
  </g>
</svg>
